<?xml version="1.0" encoding="UTF-8" standalone="no"?>
<!DOCTYPE svg PUBLIC "-//W3C//DTD SVG 1.1//EN"
 "http://www.w3.org/Graphics/SVG/1.1/DTD/svg11.dtd">
<!-- Generated by graphviz version 2.43.0 (0)
 -->
<!-- Title: graphe_pondere Pages: 1 -->
<svg width="489pt" height="224pt"
 viewBox="0.00 0.00 489.00 223.99" xmlns="http://www.w3.org/2000/svg" xmlns:xlink="http://www.w3.org/1999/xlink">
<g id="graph0" class="graph" transform="scale(1 1) rotate(0) translate(4 219.99)">
<title>graphe_pondere</title>
<polygon fill="white" stroke="transparent" points="-4,4 -4,-219.99 485,-219.99 485,4 -4,4"/>
<!-- A1 -->
<g id="node1" class="node">
<title>A1</title>
<ellipse fill="lightyellow" stroke="lightyellow" cx="126" cy="-110.14" rx="18" ry="18"/>
<text text-anchor="middle" x="126" y="-106.44" font-family="Times,serif" font-size="14.00">A</text>
</g>
<!-- A2 -->
<g id="node2" class="node">
<title>A2</title>
<ellipse fill="lightyellow" stroke="lightyellow" cx="72" cy="-20.15" rx="18" ry="18"/>
<text text-anchor="middle" x="72" y="-16.45" font-family="Times,serif" font-size="14.00">B</text>
</g>
<!-- A1&#45;&#45;A2 -->
<g id="edge1" class="edge">
<title>A1&#45;&#45;A2</title>
<path fill="none" stroke="black" d="M116.84,-94.22C106.85,-77.94 90.96,-52.05 81.03,-35.86"/>
<text text-anchor="middle" x="108" y="-62.1" font-family="Times,serif" font-size="14.00" fill="blue">1</text>
</g>
<!-- A20 -->
<g id="node20" class="node">
<title>A20</title>
<ellipse fill="lightyellow" stroke="lightyellow" cx="127" cy="-20.15" rx="18" ry="18"/>
<text text-anchor="middle" x="127" y="-16.45" font-family="Times,serif" font-size="14.00">T</text>
</g>
<!-- A1&#45;&#45;A20 -->
<g id="edge12" class="edge">
<title>A1&#45;&#45;A20</title>
<path fill="none" stroke="black" d="M126.2,-91.76C126.37,-76.23 126.63,-53.62 126.81,-38.2"/>
<text text-anchor="middle" x="131" y="-62.1" font-family="Times,serif" font-size="14.00" fill="blue">1</text>
</g>
<!-- A3 -->
<g id="node3" class="node">
<title>A3</title>
<ellipse fill="lightyellow" stroke="lightyellow" cx="18" cy="-110.14" rx="18" ry="18"/>
<text text-anchor="middle" x="18" y="-106.44" font-family="Times,serif" font-size="14.00">C</text>
</g>
<!-- A3&#45;&#45;A2 -->
<g id="edge2" class="edge">
<title>A3&#45;&#45;A2</title>
<path fill="none" stroke="black" d="M27.16,-94.22C37.15,-77.94 53.04,-52.05 62.97,-35.86"/>
<text text-anchor="middle" x="54" y="-62.1" font-family="Times,serif" font-size="14.00" fill="blue">2</text>
</g>
<!-- A16 -->
<g id="node16" class="node">
<title>A16</title>
<ellipse fill="lightyellow" stroke="lightyellow" cx="18" cy="-20.15" rx="18" ry="18"/>
<text text-anchor="middle" x="18" y="-16.45" font-family="Times,serif" font-size="14.00">P</text>
</g>
<!-- A3&#45;&#45;A16 -->
<g id="edge13" class="edge">
<title>A3&#45;&#45;A16</title>
<path fill="none" stroke="black" d="M18,-91.76C18,-76.23 18,-53.62 18,-38.2"/>
<text text-anchor="middle" x="23" y="-62.1" font-family="Times,serif" font-size="14.00" fill="blue">2</text>
</g>
<!-- A4 -->
<g id="node4" class="node">
<title>A4</title>
<ellipse fill="lightyellow" stroke="lightyellow" cx="411" cy="-20.15" rx="18.4" ry="18.4"/>
<text text-anchor="middle" x="411" y="-16.45" font-family="Times,serif" font-size="14.00">D</text>
</g>
<!-- A5 -->
<g id="node5" class="node">
<title>A5</title>
<ellipse fill="lightyellow" stroke="lightyellow" cx="258" cy="-110.14" rx="18" ry="18"/>
<text text-anchor="middle" x="258" y="-106.44" font-family="Times,serif" font-size="14.00">E</text>
</g>
<!-- A5&#45;&#45;A4 -->
<g id="edge10" class="edge">
<title>A5&#45;&#45;A4</title>
<path fill="none" stroke="black" d="M272.41,-99.25C276.44,-96.59 280.85,-93.77 285,-91.3 311.83,-75.34 319.18,-72.46 347,-58.3 363.3,-50 368.27,-49.62 384,-40.3 388.25,-37.78 392.69,-34.79 396.72,-31.93"/>
<text text-anchor="middle" x="352" y="-62.1" font-family="Times,serif" font-size="14.00" fill="blue">4</text>
</g>
<!-- A6 -->
<g id="node6" class="node">
<title>A6</title>
<ellipse fill="lightyellow" stroke="lightyellow" cx="235" cy="-20.15" rx="18" ry="18"/>
<text text-anchor="middle" x="235" y="-16.45" font-family="Times,serif" font-size="14.00">F</text>
</g>
<!-- A5&#45;&#45;A6 -->
<g id="edge6" class="edge">
<title>A5&#45;&#45;A6</title>
<path fill="none" stroke="black" d="M253.67,-92.59C249.56,-76.86 243.41,-53.33 239.31,-37.63"/>
<text text-anchor="middle" x="253" y="-62.1" font-family="Times,serif" font-size="14.00" fill="blue">7</text>
</g>
<!-- A13 -->
<g id="node13" class="node">
<title>A13</title>
<ellipse fill="lightyellow" stroke="lightyellow" cx="291" cy="-20.15" rx="20.3" ry="20.3"/>
<text text-anchor="middle" x="291" y="-16.45" font-family="Times,serif" font-size="14.00">M</text>
</g>
<!-- A5&#45;&#45;A13 -->
<g id="edge17" class="edge">
<title>A5&#45;&#45;A13</title>
<path fill="none" stroke="black" d="M264.05,-93C269.75,-77.82 278.26,-55.12 284.19,-39.31"/>
<text text-anchor="middle" x="281" y="-62.1" font-family="Times,serif" font-size="14.00" fill="blue">7</text>
</g>
<!-- A5&#45;&#45;A20 -->
<g id="edge21" class="edge">
<title>A5&#45;&#45;A20</title>
<path fill="none" stroke="black" d="M246.49,-95.9C236.09,-84.6 219.86,-68.61 203,-58.3 183.21,-46.19 174.53,-51.1 154,-40.3 149.52,-37.94 144.94,-34.94 140.84,-32.02"/>
<text text-anchor="middle" x="227" y="-62.1" font-family="Times,serif" font-size="14.00" fill="blue">4</text>
</g>
<!-- A7 -->
<g id="node7" class="node">
<title>A7</title>
<ellipse fill="lightyellow" stroke="lightyellow" cx="368" cy="-110.14" rx="18.4" ry="18.4"/>
<text text-anchor="middle" x="368" y="-106.44" font-family="Times,serif" font-size="14.00">G</text>
</g>
<!-- A7&#45;&#45;A4 -->
<g id="edge8" class="edge">
<title>A7&#45;&#45;A4</title>
<path fill="none" stroke="black" d="M375.69,-93.41C383.51,-77.4 395.58,-52.71 403.38,-36.74"/>
<text text-anchor="middle" x="397" y="-62.1" font-family="Times,serif" font-size="14.00" fill="blue">8</text>
</g>
<!-- A17 -->
<g id="node17" class="node">
<title>A17</title>
<ellipse fill="lightyellow" stroke="lightyellow" cx="357" cy="-20.15" rx="18.4" ry="18.4"/>
<text text-anchor="middle" x="357" y="-16.45" font-family="Times,serif" font-size="14.00">Q</text>
</g>
<!-- A7&#45;&#45;A17 -->
<g id="edge19" class="edge">
<title>A7&#45;&#45;A17</title>
<path fill="none" stroke="black" d="M365.83,-91.76C363.9,-76.33 361.1,-53.91 359.17,-38.5"/>
<text text-anchor="middle" x="368" y="-62.1" font-family="Times,serif" font-size="14.00" fill="blue">8</text>
</g>
<!-- A8 -->
<g id="node8" class="node">
<title>A8</title>
<ellipse fill="lightyellow" stroke="lightyellow" cx="181" cy="-110.14" rx="18.7" ry="18.7"/>
<text text-anchor="middle" x="181" y="-106.44" font-family="Times,serif" font-size="14.00">H</text>
</g>
<!-- A8&#45;&#45;A6 -->
<g id="edge7" class="edge">
<title>A8&#45;&#45;A6</title>
<path fill="none" stroke="black" d="M182.53,-91.19C184.04,-80.97 187.04,-68.26 193,-58.3 199.7,-47.1 210.89,-37.45 220.04,-30.79"/>
<text text-anchor="middle" x="198" y="-62.1" font-family="Times,serif" font-size="14.00" fill="blue">1</text>
</g>
<!-- A15 -->
<g id="node15" class="node">
<title>A15</title>
<ellipse fill="lightyellow" stroke="lightyellow" cx="181" cy="-20.15" rx="18.4" ry="18.4"/>
<text text-anchor="middle" x="181" y="-16.45" font-family="Times,serif" font-size="14.00">O</text>
</g>
<!-- A8&#45;&#45;A15 -->
<g id="edge18" class="edge">
<title>A8&#45;&#45;A15</title>
<path fill="none" stroke="black" d="M170.1,-94.59C166.1,-88.37 162.04,-80.81 160,-73.3 156.37,-59.92 163.23,-45.34 170.06,-35"/>
<text text-anchor="middle" x="165" y="-62.1" font-family="Times,serif" font-size="14.00" fill="blue">1</text>
</g>
<!-- A9 -->
<g id="node9" class="node">
<title>A9</title>
<ellipse fill="lightyellow" stroke="lightyellow" cx="321" cy="-197.99" rx="18" ry="18"/>
<text text-anchor="middle" x="321" y="-194.29" font-family="Times,serif" font-size="14.00">I</text>
</g>
<!-- A9&#45;&#45;A7 -->
<g id="edge4" class="edge">
<title>A9&#45;&#45;A7</title>
<path fill="none" stroke="black" d="M329.4,-181.65C337.96,-166.02 351.14,-141.94 359.67,-126.36"/>
<text text-anchor="middle" x="352" y="-150.79" font-family="Times,serif" font-size="14.00" fill="blue">4</text>
</g>
<!-- A14 -->
<g id="node14" class="node">
<title>A14</title>
<ellipse fill="lightyellow" stroke="lightyellow" cx="313" cy="-110.14" rx="18.7" ry="18.7"/>
<text text-anchor="middle" x="313" y="-106.44" font-family="Times,serif" font-size="14.00">N</text>
</g>
<!-- A9&#45;&#45;A14 -->
<g id="edge15" class="edge">
<title>A9&#45;&#45;A14</title>
<path fill="none" stroke="black" d="M317.62,-179.97C316.62,-174.27 315.62,-167.88 315,-161.99 313.86,-151.1 313.35,-138.83 313.14,-129.07"/>
<text text-anchor="middle" x="320" y="-150.79" font-family="Times,serif" font-size="14.00" fill="blue">4</text>
</g>
<!-- A10 -->
<g id="node10" class="node">
<title>A10</title>
<ellipse fill="lightyellow" stroke="lightyellow" cx="390" cy="-197.99" rx="18" ry="18"/>
<text text-anchor="middle" x="390" y="-194.29" font-family="Times,serif" font-size="14.00">J</text>
</g>
<!-- A10&#45;&#45;A7 -->
<g id="edge5" class="edge">
<title>A10&#45;&#45;A7</title>
<path fill="none" stroke="black" d="M385.76,-180.44C381.89,-165.34 376.19,-143.12 372.3,-127.94"/>
<text text-anchor="middle" x="385" y="-150.79" font-family="Times,serif" font-size="14.00" fill="blue">3</text>
</g>
<!-- A18 -->
<g id="node18" class="node">
<title>A18</title>
<ellipse fill="lightyellow" stroke="lightyellow" cx="422" cy="-110.14" rx="18" ry="18"/>
<text text-anchor="middle" x="422" y="-106.44" font-family="Times,serif" font-size="14.00">R</text>
</g>
<!-- A10&#45;&#45;A18 -->
<g id="edge16" class="edge">
<title>A10&#45;&#45;A18</title>
<path fill="none" stroke="black" d="M396.02,-180.85C401.74,-165.5 410.3,-142.54 416.01,-127.22"/>
<text text-anchor="middle" x="412" y="-150.79" font-family="Times,serif" font-size="14.00" fill="blue">3</text>
</g>
<!-- A11 -->
<g id="node11" class="node">
<title>A11</title>
<ellipse fill="lightyellow" stroke="lightyellow" cx="79" cy="-197.99" rx="18" ry="18"/>
<text text-anchor="middle" x="79" y="-194.29" font-family="Times,serif" font-size="14.00">K</text>
</g>
<!-- A11&#45;&#45;A3 -->
<g id="edge9" class="edge">
<title>A11&#45;&#45;A3</title>
<path fill="none" stroke="black" d="M66.43,-184.62C60.21,-178.17 52.82,-169.98 47,-161.99 38.86,-150.82 31.19,-137.17 25.78,-126.82"/>
<text text-anchor="middle" x="52" y="-150.79" font-family="Times,serif" font-size="14.00" fill="blue">3</text>
</g>
<!-- A11&#45;&#45;A8 -->
<g id="edge11" class="edge">
<title>A11&#45;&#45;A8</title>
<path fill="none" stroke="black" d="M92.33,-185.77C111.67,-169.5 147.31,-139.5 167.01,-122.92"/>
<text text-anchor="middle" x="141" y="-150.79" font-family="Times,serif" font-size="14.00" fill="blue">3</text>
</g>
<!-- A19 -->
<g id="node19" class="node">
<title>A19</title>
<ellipse fill="lightyellow" stroke="lightyellow" cx="72" cy="-110.14" rx="18" ry="18"/>
<text text-anchor="middle" x="72" y="-106.44" font-family="Times,serif" font-size="14.00">S</text>
</g>
<!-- A11&#45;&#45;A19 -->
<g id="edge20" class="edge">
<title>A11&#45;&#45;A19</title>
<path fill="none" stroke="black" d="M70.34,-181.81C67.4,-175.83 64.48,-168.78 63,-161.99 60.48,-150.43 62.95,-137.27 65.94,-127.24"/>
<text text-anchor="middle" x="68" y="-150.79" font-family="Times,serif" font-size="14.00" fill="blue">3</text>
</g>
<!-- A11&#45;&#45;A19 -->
<g id="edge22" class="edge">
<title>A11&#45;&#45;A19</title>
<path fill="none" stroke="black" d="M77.62,-180.03C76.4,-165.08 74.63,-143.39 73.4,-128.36"/>
<text text-anchor="middle" x="81" y="-150.79" font-family="Times,serif" font-size="14.00" fill="blue">3</text>
</g>
<!-- A12 -->
<g id="node12" class="node">
<title>A12</title>
<ellipse fill="lightyellow" stroke="lightyellow" cx="463" cy="-197.99" rx="18" ry="18"/>
<text text-anchor="middle" x="463" y="-194.29" font-family="Times,serif" font-size="14.00">L</text>
</g>
<!-- A12&#45;&#45;A4 -->
<g id="edge3" class="edge">
<title>A12&#45;&#45;A4</title>
<path fill="none" stroke="black" d="M462.54,-179.82C462.14,-170.14 461.39,-157.86 460,-146.99 456.79,-121.97 457.55,-115.04 449,-91.3 441.72,-71.1 429.33,-49.64 420.68,-35.86"/>
<text text-anchor="middle" x="462" y="-106.44" font-family="Times,serif" font-size="14.00" fill="blue">2</text>
</g>
<!-- A12&#45;&#45;A18 -->
<g id="edge14" class="edge">
<title>A12&#45;&#45;A18</title>
<path fill="none" stroke="black" d="M455.48,-181.25C448.08,-165.76 436.85,-142.25 429.47,-126.79"/>
<text text-anchor="middle" x="451" y="-150.79" font-family="Times,serif" font-size="14.00" fill="blue">2</text>
</g>
</g>
</svg>
