<?xml version="1.0" encoding="UTF-8" standalone="no"?>
<!DOCTYPE svg PUBLIC "-//W3C//DTD SVG 1.1//EN"
 "http://www.w3.org/Graphics/SVG/1.1/DTD/svg11.dtd">
<!-- Generated by graphviz version 2.43.0 (0)
 -->
<!-- Title: graphe_pondere Pages: 1 -->
<svg width="177pt" height="307pt"
 viewBox="0.00 0.00 177.05 307.49" xmlns="http://www.w3.org/2000/svg" xmlns:xlink="http://www.w3.org/1999/xlink">
<g id="graph0" class="graph" transform="scale(1 1) rotate(0) translate(4 303.49)">
<title>graphe_pondere</title>
<polygon fill="white" stroke="transparent" points="-4,4 -4,-303.49 173.05,-303.49 173.05,4 -4,4"/>
<!-- A -->
<g id="node1" class="node">
<title>A</title>
<ellipse fill="lightyellow" stroke="lightyellow" cx="84.2" cy="-281.49" rx="18" ry="18"/>
<text text-anchor="middle" x="84.2" y="-277.79" font-family="Times,serif" font-size="14.00">A</text>
</g>
<!-- B -->
<g id="node2" class="node">
<title>B</title>
<ellipse fill="lightyellow" stroke="lightyellow" cx="84.2" cy="-193.64" rx="18" ry="18"/>
<text text-anchor="middle" x="84.2" y="-189.94" font-family="Times,serif" font-size="14.00">B</text>
</g>
<!-- A&#45;&#45;B -->
<g id="edge1" class="edge">
<title>A&#45;&#45;B</title>
<path fill="none" stroke="black" d="M84.2,-263.12C84.2,-248.13 84.2,-226.59 84.2,-211.7"/>
<text text-anchor="middle" x="89.2" y="-234.29" font-family="Times,serif" font-size="14.00" fill="blue">5</text>
</g>
<!-- C -->
<g id="node3" class="node">
<title>C</title>
<ellipse fill="lightyellow" stroke="lightyellow" cx="18.2" cy="-193.64" rx="18" ry="18"/>
<text text-anchor="middle" x="18.2" y="-189.94" font-family="Times,serif" font-size="14.00">C</text>
</g>
<!-- A&#45;&#45;C -->
<g id="edge2" class="edge">
<title>A&#45;&#45;C</title>
<path fill="none" stroke="black" d="M73.59,-266.7C61.28,-250.68 41.08,-224.41 28.78,-208.4"/>
<text text-anchor="middle" x="62.2" y="-234.29" font-family="Times,serif" font-size="14.00" fill="blue">2</text>
</g>
<!-- D -->
<g id="node4" class="node">
<title>D</title>
<ellipse fill="lightyellow" stroke="lightyellow" cx="18.2" cy="-105.6" rx="18.4" ry="18.4"/>
<text text-anchor="middle" x="18.2" y="-101.9" font-family="Times,serif" font-size="14.00">D</text>
</g>
<!-- B&#45;&#45;D -->
<g id="edge3" class="edge">
<title>B&#45;&#45;D</title>
<path fill="none" stroke="black" d="M73.59,-178.82C61.35,-162.85 41.32,-136.74 29,-120.67"/>
<text text-anchor="middle" x="60.2" y="-145.59" font-family="Times,serif" font-size="14.00" fill="blue">1</text>
</g>
<!-- C&#45;&#45;D -->
<g id="edge4" class="edge">
<title>C&#45;&#45;D</title>
<path fill="none" stroke="black" d="M18.2,-175.64C18.2,-160.65 18.2,-138.92 18.2,-123.85"/>
<text text-anchor="middle" x="23.2" y="-145.59" font-family="Times,serif" font-size="14.00" fill="blue">3</text>
</g>
<!-- G -->
<g id="node7" class="node">
<title>G</title>
<ellipse fill="lightyellow" stroke="lightyellow" cx="18.2" cy="-18.2" rx="18.4" ry="18.4"/>
<text text-anchor="middle" x="18.2" y="-14.5" font-family="Times,serif" font-size="14.00">G</text>
</g>
<!-- D&#45;&#45;G -->
<g id="edge7" class="edge">
<title>D&#45;&#45;G</title>
<path fill="none" stroke="black" d="M18.2,-87.31C18.2,-72.5 18.2,-51.26 18.2,-36.45"/>
<text text-anchor="middle" x="23.2" y="-58.2" font-family="Times,serif" font-size="14.00" fill="blue">2</text>
</g>
<!-- E -->
<g id="node5" class="node">
<title>E</title>
<ellipse fill="lightyellow" stroke="lightyellow" cx="138.2" cy="-281.49" rx="18" ry="18"/>
<text text-anchor="middle" x="138.2" y="-277.79" font-family="Times,serif" font-size="14.00">E</text>
</g>
<!-- E&#45;&#45;B -->
<g id="edge5" class="edge">
<title>E&#45;&#45;B</title>
<path fill="none" stroke="black" d="M129.04,-265.93C119.11,-250.14 103.35,-225.09 93.4,-209.28"/>
<text text-anchor="middle" x="121.2" y="-234.29" font-family="Times,serif" font-size="14.00" fill="blue">4</text>
</g>
<!-- H -->
<g id="node8" class="node">
<title>H</title>
<ellipse fill="lightyellow" stroke="lightyellow" cx="150.2" cy="-193.64" rx="18.7" ry="18.7"/>
<text text-anchor="middle" x="150.2" y="-189.94" font-family="Times,serif" font-size="14.00">H</text>
</g>
<!-- E&#45;&#45;H -->
<g id="edge8" class="edge">
<title>E&#45;&#45;H</title>
<path fill="none" stroke="black" d="M140.57,-263.53C142.63,-248.77 145.61,-227.46 147.71,-212.45"/>
<text text-anchor="middle" x="150.2" y="-234.29" font-family="Times,serif" font-size="14.00" fill="blue">3</text>
</g>
<!-- F -->
<g id="node6" class="node">
<title>F</title>
<ellipse fill="lightyellow" stroke="lightyellow" cx="18.2" cy="-281.49" rx="18" ry="18"/>
<text text-anchor="middle" x="18.2" y="-277.79" font-family="Times,serif" font-size="14.00">F</text>
</g>
<!-- F&#45;&#45;C -->
<g id="edge6" class="edge">
<title>F&#45;&#45;C</title>
<path fill="none" stroke="black" d="M18.2,-263.12C18.2,-248.13 18.2,-226.59 18.2,-211.7"/>
<text text-anchor="middle" x="23.2" y="-234.29" font-family="Times,serif" font-size="14.00" fill="blue">6</text>
</g>
</g>
</svg>
